<svg xmlns="http://www.w3.org/2000/svg" viewBox="0 0 32 32" width="32" height="32">
  <!-- Background circle (ocean) -->
  <circle cx="16" cy="16" r="15" fill="#1a1a2e" stroke="#2d2d44" stroke-width="1"/>
  
  <!-- Earth continents (shifted to show off-center concept) -->
  <path d="M6 10 Q10 6 14 8 Q18 6 22 10 Q20 14 18 16 Q16 18 14 16 Q12 18 10 16 Q8 14 6 10 Z" fill="#4a6741"/>
  <path d="M4 18 Q8 16 12 18 Q14 20 16 18 Q18 16 22 18 Q20 22 18 24 Q16 26 14 24 Q12 26 10 24 Q8 22 4 18 Z" fill="#4a6741"/>
  <path d="M18 4 Q22 6 24 10 Q22 12 20 10 Q18 8 18 4 Z" fill="#4a6741"/>
  <path d="M24 14 Q26 16 24 18 Q22 16 24 14 Z" fill="#4a6741"/>
  
  <!-- Grid lines to show it's a map projection -->
  <line x1="16" y1="2" x2="16" y2="30" stroke="#666" stroke-width="0.3" opacity="0.5"/>
  <line x1="2" y1="16" x2="30" y2="16" stroke="#666" stroke-width="0.3" opacity="0.5"/>
  <line x1="8" y1="8" x2="24" y2="24" stroke="#666" stroke-width="0.2" opacity="0.4"/>
  <line x1="24" y1="8" x2="8" y2="24" stroke="#666" stroke-width="0.2" opacity="0.4"/>
  
  <!-- Center point indicator (red dot) - off-center to show the concept -->
  <circle cx="20" cy="12" r="1.5" fill="#ff4444" stroke="#ffffff" stroke-width="0.3"/>
  
  <!-- Small arrow pointing to show "recentered" concept -->
  <path d="M16 16 L20 12 M18 10 L20 12 L18 14" stroke="#ff4444" stroke-width="0.8" fill="none" stroke-linecap="round"/>
</svg>
